<?xml version="1.0" encoding="UTF-8"?>
<svg width="200px" height="200px" viewBox="0 0 200 200" version="1.1" xmlns="http://www.w3.org/2000/svg" xmlns:xlink="http://www.w3.org/1999/xlink">
    <!-- Generator: Sketch 51.1 (57501) - http://www.bohemiancoding.com/sketch -->
    <title>Slice</title>
    <desc>Created with Sketch.</desc>
    <defs></defs>
    <g id="Color-Logo-on-White-Background---200px-x-200px" stroke="none" stroke-width="1" fill="none" fill-rule="evenodd">
        <rect id="Rectangle" fill="#FFFFFF" x="0" y="0" width="200" height="200"></rect>
        <g id="sme_dfw_logo_color" transform="translate(15.000000, 15.000000)">
            <path d="M0.42,53.13 L2.52,50.54 C4.55,53.13 8.4,55.3 12.88,55.3 C18.27,55.3 21.49,52.5 21.49,48.79 C21.49,39.97 1.19,44.94 1.19,33.39 C1.19,28.49 5.39,24.43 12.67,24.43 C18.2,24.43 21.84,26.53 24.22,29.19 L22.26,31.64 C20.3,29.05 16.87,27.3 12.6,27.3 C7.63,27.3 4.55,29.82 4.55,33.18 C4.55,41.23 24.85,36.33 24.85,48.72 C24.85,53.9 20.86,58.17 12.81,58.17 C7.63,58.17 3.57,56.63 0.42,53.13 Z M104.51,42.35 L104.51,41.44 C104.51,32.2 99.12,24.36 89.32,24.36 C80.43,24.36 73.78,31.92 73.78,41.23 C73.78,51.17 80.5,58.17 89.88,58.17 C95.2,58.17 99.26,56.28 102.48,52.99 L100.66,50.75 C97.93,53.69 94.22,55.23 90.16,55.23 C82.74,55.23 78.12,49.7 77.63,42.98 C77.56,42.28 77.56,40.53 77.63,39.76 C77.91,34.16 81.69,27.51 89.25,27.51 C97.3,27.51 100.87,34.3 100.94,39.76 L81.06,39.76 C80.99,39.76 80.85,39.83 80.78,39.83 C79.59,40.04 78.33,41.51 77.84,42.49 L104.51,42.49 L104.51,42.35 Z M31.92,33.81 L31.92,30.1 C31.92,30.1 31.92,30.1 31.92,30.1 L31.92,25.2 L28.49,25.2 L28.49,57.4 L31.92,57.4 L31.92,33.81 Z M51.1,32.76 C51.03,31.5 50.82,30.66 50.75,30.52 C50.75,30.52 50.75,30.52 50.75,30.52 C49.98,27.37 47.32,24.43 42.28,24.43 C38.57,24.43 35.07,26.67 33.11,28.63 L33.11,31.57 C35.21,29.33 38.29,27.58 41.09,27.58 C45.71,27.58 47.53,30.38 47.53,34.93 L47.53,57.4 L51.03,57.4 L51.03,33.39 L51.1,32.76 Z M61.39,24.43 C57.75,24.43 54.32,26.39 52.15,28.7 L52.15,31.64 C54.18,29.33 57.4,27.58 60.27,27.58 C64.82,27.58 66.71,30.38 66.71,34.93 L66.71,57.4 L70.14,57.4 L70.14,34.16 C70.21,27.72 67.34,24.43 61.39,24.43 Z" id="Shape" fill="#0A3254" fill-rule="nonzero"></path>
            <g id="XMLID_7_" transform="translate(91.000000, 0.000000)" fill-rule="nonzero">
                <g id="Group">
                    <path d="M51.24,18.55 C51.31,21.07 49.63,23.17 45.85,25.76 C42.07,28.35 27.93,33.81 19.88,35.77 C19.88,35.77 14.56,28.14 21.21,25.48 C22.89,24.78 30.03,22.54 33.04,21 C33.04,21 38.08,18.97 36.33,15.05 C35.21,12.6 32.9,10.57 30.24,8.96 C30.59,8.68 30.94,8.4 31.22,8.05 C31.57,7.63 31.92,7.21 32.13,6.72 C35.63,7.7 39.69,9.03 43.96,10.92 C47.04,12.18 51.17,14.56 51.24,18.55 Z" id="Shape" fill="#5E8AB5"></path>
                    <path d="M20.37,4.34 C20.37,4.34 25.2,4.83 32.2,6.72 C31.99,7.21 31.64,7.63 31.29,8.05 C30.94,8.4 30.59,8.68 30.31,8.96 C27.09,7 23.24,5.46 20.37,4.34 Z" id="Shape" fill="#0A3254"></path>
                    <path d="M20.37,4.34 C23.24,5.53 27.02,7 30.24,8.96 C28.7,10.15 26.95,10.64 23.03,11.48 C18.27,12.46 12.25,13.72 11.06,15.33 C9.38,17.5 11.13,19.11 12.6,20.58 C14,21.98 17.99,24.99 17.99,24.99 C10.71,22.68 1.12,19.25 0.49,14.28 C-0.21,8.82 6.65,5.67 9.8,4.48 C19.53,0.77 32.27,0.42 32.27,0.42 C33.11,2.38 33.11,4.83 32.2,6.72 C25.2,4.76 20.37,4.34 20.37,4.34 Z" id="Shape" fill="#D6D251"></path>
                </g>
            </g>
            <text id="Dallas-Fort-Worth-Chapter-51" fill="#5E8AB5" font-family="Helvetica" font-size="16" font-weight="normal">
                <tspan x="26.98213" y="76.55941">Dallas-Fort Worth </tspan>
                <tspan x="26.98213" y="95.55941">Chapter 51</tspan>
            </text>
            <path d="M129.57,35.35 C128.52,35.35 127.68,34.51 127.68,33.46 C127.68,32.41 128.52,31.57 129.57,31.57 C130.62,31.57 131.46,32.41 131.46,33.46 C131.46,34.44 130.62,35.35 129.57,35.35 Z M129.57,31.78 C128.66,31.78 127.96,32.48 127.96,33.39 C127.96,34.3 128.66,35 129.57,35 C130.48,35 131.18,34.3 131.18,33.39 C131.18,32.55 130.48,31.78 129.57,31.78 Z M130.13,34.51 L129.57,33.67 L129.22,33.67 L129.22,34.51 L128.94,34.51 L128.94,32.34 L129.85,32.34 C130.2,32.34 130.55,32.62 130.55,32.97 C130.55,33.46 130.13,33.6 129.99,33.6 L130.55,34.44 L130.13,34.44 L130.13,34.51 Z M129.71,32.62 L129.15,32.62 L129.15,33.39 L129.71,33.39 C129.92,33.39 130.13,33.25 130.13,33.04 C130.13,32.76 129.92,32.62 129.71,32.62 Z" id="Shape" fill="#000000" fill-rule="nonzero"></path>
        </g>
    </g>
</svg>