<svg xmlns="http://www.w3.org/2000/svg" xmlns:xlink="http://www.w3.org/1999/xlink" viewBox="0 0 658 120"><defs><style>.cls-1,.cls-2{fill:none;}.cls-2{stroke:#000;stroke-miterlimit:10;stroke-width:1.29px;}.cls-3{clip-path:url(#clip-path);}</style><clipPath id="clip-path"><rect class="cls-1" x="164.49" y="8" width="91" height="63.05"/></clipPath></defs><title>logo--15x--light</title><g id="Light_15x_Logo" data-name="Light 15x Logo"><g id="Texaplex_Wordmark" data-name="Texaplex Wordmark"><path d="M309.57,8h42.7v9.06H336.35V60H325.49V17.06H309.57Z"/><path d="M355.76,8h35v9.06H366.75v12.4H389v9.06H366.75V50.94H390.9V60H355.76Z"/><path d="M416.78,25.72h.4L427.72,8h12.41L424.27,34l16.22,26H427.85L417.18,42.25h-.4L406.11,60H393.52l16.27-26-16-26h12.47Z"/><path d="M440.67,60,458.62,8h14.17l17.93,52H478.94l-3.86-11.86H456.31L452.45,60Zm31.64-20.44-6.4-19.68h-.4l-6.4,19.68Z"/><path d="M493.39,8H513.9c11.81,0,18.64,7.29,18.64,17.62s-7,17.52-18.91,17.52h-9.25V60h-11Zm18.46,26.33c6.29,0,9.37-3.55,9.37-8.71S518.14,17,511.8,17h-7.42V34.33Z"/><path d="M536.13,8h11V50.94h22.29V60H536.13Z"/><path d="M573.13,8h35v9.06h-24v12.4h22.24v9.06H584.12V50.94h24.15V60H573.13Z"/><path d="M634.14,25.72h.41L645.09,8H657.5L641.63,34l16.23,26H645.21L634.55,42.25h-.41L623.48,60H610.89l16.27-26-16-26h12.47Z"/><path d="M338.69,96.35H339l6.86-21.54h6.65l-9.78,28.35H335l-9.79-28.35h6.66Z"/><path d="M355.55,76.14a3.19,3.19,0,1,1,3.19,3.1A3.17,3.17,0,0,1,355.55,76.14Zm.22,5.76h5.9v21.26h-5.9Z"/><path d="M366.38,81.9h5.72v3.71h.22a5.16,5.16,0,0,1,5.11-4,5.61,5.61,0,0,1,2.91.78l-1.77,4.87a4.38,4.38,0,0,0-2-.5,4.22,4.22,0,0,0-4.28,4.39v12h-5.9Z"/><path d="M395.74,86.33h-4V96.57c0,1.64.81,2.08,2,2.08a6.94,6.94,0,0,0,1.47-.19l.93,4.4a12.79,12.79,0,0,1-3.2.55c-4.28.17-7.12-1.89-7.09-6v-11h-2.91V81.9h2.91V76.8h5.9v5.1h4Z"/><path d="M413.3,81.9h5.9v21.26h-5.67V99.3h-.22a6.52,6.52,0,0,1-6.45,4.14c-4.28,0-7.18-3-7.2-8V81.9h5.9V94.39c0,2.5,1.45,4.07,3.68,4.07a4,4,0,0,0,4.06-4.35Z"/><path d="M422.92,97.22c0-4.75,3.77-6.16,8-6.55,3.7-.36,5.15-.54,5.15-1.91v-.08c0-1.74-1.14-2.75-3.15-2.75s-3.38,1-3.78,2.45l-5.46-.45c.82-3.87,4.17-6.31,9.27-6.31,4.73,0,9,2.13,9,7.2v14.34h-5.59v-3h-.17c-1,2-3.07,3.36-6.21,3.36C425.92,103.57,422.92,101.43,422.92,97.22Zm13.18-1.66V93.3a13.9,13.9,0,0,1-4.1,1c-2.08.29-3.45,1.11-3.45,2.77s1.3,2.46,3.12,2.46C434.25,99.49,436.1,97.79,436.1,95.56Z"/><path d="M452.44,103.16h-5.9V74.81h5.9Z"/><path d="M485.26,84.73c-.46-3.11-2.82-5-6.11-5-4.38,0-7.26,3.37-7.26,9.27,0,6.06,2.92,9.26,7.22,9.26,3.2,0,5.58-1.75,6.15-4.78l6.07,0c-.66,5.22-5,10-12.31,10-7.59,0-13.21-5.32-13.21-14.56S471.53,74.42,479,74.42c6.56,0,11.52,3.77,12.31,10.31Z"/><path d="M501.43,103.16h-5.9V74.81h5.73V85.65h.25c1-2.51,3.13-4,6.35-4,4.44,0,7.37,3,7.36,8v13.54h-5.9V90.67c0-2.61-1.4-4.15-3.8-4.15s-4.08,1.61-4.09,4.35Z"/><path d="M518.88,97.22c0-4.75,3.78-6.16,8-6.55,3.69-.36,5.15-.54,5.15-1.91v-.08c0-1.74-1.15-2.75-3.16-2.75s-3.38,1-3.78,2.45l-5.45-.45c.81-3.87,4.16-6.31,9.26-6.31,4.73,0,9,2.13,9,7.2v14.34h-5.6v-3h-.16c-1,2-3.08,3.36-6.22,3.36C521.88,103.57,518.88,101.43,518.88,97.22Zm13.18-1.66V93.3a13.9,13.9,0,0,1-4.1,1c-2.08.29-3.45,1.11-3.45,2.77s1.31,2.46,3.12,2.46C530.22,99.49,532.06,97.79,532.06,95.56Z"/><path d="M542.51,81.9h5.81v3.57h.26a6.28,6.28,0,0,1,6-3.85c4.67,0,8.62,3.63,8.62,10.94,0,7.11-3.78,11-8.63,11a6.3,6.3,0,0,1-6-3.75h-.18v11.38h-5.89Zm10.24,16.92c2.89,0,4.47-2.58,4.47-6.29s-1.55-6.22-4.47-6.22-4.47,2.43-4.47,6.22S549.91,98.82,552.75,98.82Z"/><path d="M578.48,86.33h-4V96.57c0,1.64.82,2.08,2,2.08a6.92,6.92,0,0,0,1.46-.19l.93,4.4a12.61,12.61,0,0,1-3.2.55c-4.28.17-7.11-1.89-7.09-6v-11h-2.9V81.9h2.9V76.8h5.9v5.1h4Z"/><path d="M581.33,92.63c0-6.57,4-11,10.31-11,5.62,0,10,3.57,10,10.8V94H587.16c0,3.17,1.86,5.13,4.81,5.13a4,4,0,0,0,4.09-2.47l5.45.36c-.83,4-4.37,6.51-9.63,6.51C585.33,103.58,581.33,99.37,581.33,92.63Zm14.76-2.25A4.2,4.2,0,0,0,591.74,86a4.48,4.48,0,0,0-4.58,4.36Z"/><path d="M605.49,81.9h5.72v3.71h.22a5.17,5.17,0,0,1,5.11-4,5.61,5.61,0,0,1,2.91.78l-1.77,4.87a4.38,4.38,0,0,0-2-.5,4.23,4.23,0,0,0-4.28,4.39v12h-5.9Z"/></g><line id="Divider" class="cls-2" x1="283.44" y1="1.5" x2="283.44" y2="118.5"/><g id="SME_Logo" data-name="SME Logo"><path d="M1,102.48l3.7-4.66a24,24,0,0,0,18.63,8.48c9.68,0,15.4-5,15.4-11.7C38.73,78.83,2.32,87.67,2.32,67c0-8.84,7.51-16,20.53-16,9.92,0,16.49,3.82,20.66,8.48L40.05,63.9c-3.34-4.54-9.55-7.64-17.2-7.64-9,0-14.45,4.54-14.45,10.51,0,14.45,36.43,5.61,36.43,27.83,0,9.31-7.17,17-21.62,17-9.31,0-16.47-2.74-22.21-9.07M187.89,83.4V81.58C187.64,65,178,51,160.42,51c-16,0-27.83,13.5-27.83,30.21,0,17.8,12.06,30.33,28.9,30.33,9.56,0,16.84-3.34,22.57-9.31l-3.23-4.06a25.34,25.34,0,0,1-18.86,8c-13.28,0-21.56-9.9-22.51-22a45,45,0,0,1-.05-6h0c.48-9.87,7.29-21.82,20.9-21.82,14.45,0,20.9,12.18,21,21.82H145.65a.69.69,0,0,1-.49.25c-2.11.43-4.36,3-5.29,5Zm-130-15.77V60.94h0V52.2h-6.5v57.85h6.5Zm33.8-1.7c.11-2.19,0-4.06,0-4.06v0C90.25,56.26,85.43,51,76.42,51c-6.67,0-13,4.08-16.58,7.63v5.14c3.75-4,9.34-7.19,14.37-7.19,8.27,0,11.63,5,11.63,13.14v40.36h5.85V65.93ZM110.24,51c-6.47,0-12.7,3.48-16.6,7.61v5.25c3.62-4.07,9.34-7.21,14.48-7.21,8.07,0,11.52,5,11.52,13.06v40.33h6.5V68.56C126.14,57,121,51,110.38,51"/><g class="cls-3"><g class="cls-3"><path d="M255.33,40.53c.1,4.55-2.86,8.27-9.68,13s-32.13,14.39-46.53,17.89c0,0-9.55-13.64,2.42-18.49,3-1.2,15.77-5.3,21.22-8,0,0,9.09-3.64,5.92-10.61-2-4.41-6.13-8-10.9-10.92a21,21,0,0,0,1.81-1.66,9.7,9.7,0,0,0,1.63-2.35,164.71,164.71,0,0,1,21.24,7.5c5.3,2.29,12.72,6.57,12.87,13.7"/><path d="M221.4,8a13.9,13.9,0,0,1-.18,11.3A135.91,135.91,0,0,0,200,15c5.15,2.07,11.94,4.74,17.74,8.32-2.76,2.19-5.95,3.07-12.9,4.57-8.5,1.81-19.3,4.07-21.52,7-3,4,.14,6.81,2.73,9.39s9.7,7.9,9.7,7.9c-13-4.11-30.28-10.35-31.38-19.26C163.2,23,175.48,17.45,181.08,15.31,198.52,8.64,221.4,8,221.4,8"/></g></g><path d="M231.93,70.23a3.39,3.39,0,1,1,3.39-3.39,3.39,3.39,0,0,1-3.39,3.39m0-6.27a2.88,2.88,0,1,0,2.88,2.88A2.87,2.87,0,0,0,231.93,64m.93,4.49-1-1.3h-.41v1.3h-.65V65.2h1.43a.89.89,0,0,1,1.26.89,1.14,1.14,0,0,1-1,1.15l1,1.21Zm-.12-3.25h-1.3v1.3h1a.65.65,0,1,0,0-1.3"/></g></g></svg>